<?xml version="1.0" encoding="UTF-8" standalone="no"?>
<svg
   xmlns:dc="http://purl.org/dc/elements/1.1/"
   xmlns:cc="http://creativecommons.org/ns#"
   xmlns:rdf="http://www.w3.org/1999/02/22-rdf-syntax-ns#"
   xmlns:svg="http://www.w3.org/2000/svg"
   xmlns="http://www.w3.org/2000/svg"
   viewBox="0 0 2560 1440"
   height="1440"
   width="2560"
   xml:space="preserve"
   id="svg2"
   version="1.1"><metadata
     id="metadata8"><rdf:RDF><cc:Work
         rdf:about=""><dc:format>image/svg+xml</dc:format><dc:type
           rdf:resource="http://purl.org/dc/dcmitype/StillImage" /></cc:Work></rdf:RDF></metadata><defs
     id="defs6"><clipPath
       id="clipPath18"
       clipPathUnits="userSpaceOnUse"><path
         id="path16"
         d="M 0,1080 H 1920 V 0 H 0 Z" /></clipPath></defs><g
     transform="matrix(1.3333333,0,0,-1.3333333,0,1440)"
     id="g10"><g
       id="g12"><g
         clip-path="url(#clipPath18)"
         id="g14"><g
           transform="translate(551.0809,250.3018)"
           id="g20"><path
             id="path22"
             style="fill:white;fill-opacity:1;fill-rule:evenodd;stroke:none"
             d="m 0,0 c -4.942,-0.239 -9.905,-0.042 -14.924,-0.042 v -10.162 h 90.317 v 9.563 c -3.731,0 -7.189,-0.086 -10.642,0.015 -13.103,0.385 -16.811,3.298 -18.455,14.591 -0.296,2.028 -0.142,4.126 -0.143,6.191 -0.027,38.865 -0.062,77.731 -0.061,116.596 0.002,24.273 0.005,48.546 0.126,72.819 0.044,8.915 2.896,14.127 8.856,15.536 3.924,0.927 8.097,0.94 12.168,1.069 8.848,0.278 8.85,0.201 8.169,9.872 h -90.395 v -9.789 c 5.429,-0.244 10.375,-0.499 15.322,-0.682 9.588,-0.356 13.235,-4.784 13.302,-14.002 0.199,-27.371 0.046,-54.744 0.153,-82.116 0.012,-3.036 -0.913,-4.163 -3.978,-4.157 -35.961,0.073 -71.923,0.08 -107.885,0.042 -2.733,-0.003 -3.87,0.764 -3.858,3.755 0.118,27.683 0.018,55.366 0.163,83.048 0.044,8.435 4.367,12.769 12.648,13.355 5.515,0.389 11.042,0.611 16.301,0.893 v 9.58 h -90.724 v -9.978 c 4.411,0 8.561,0.075 12.707,-0.015 9.346,-0.203 14.239,-3.026 15.507,-9.224 0.662,-3.238 1.021,-6.595 1.026,-9.899 0.069,-45.422 0.053,-90.844 0.057,-136.265 0.001,-17.789 0.266,-35.584 -0.105,-53.365 -0.22,-10.534 -2.347,-17.323 -15.989,-17.339 -4.366,-0.005 -8.731,-0.001 -13.135,-0.001 v -10.188 h 90.435 v 9.685 c -3.932,0 -7.401,-0.308 -10.797,0.056 -12.1,1.298 -18.091,1.808 -18.047,18.205 0.078,28.637 0.002,57.275 -0.009,85.913 -0.001,1.693 0,3.387 0,5.148 H 13.729 c 0,-3.952 0.001,-7.587 0,-11.221 C 13.717,69.796 13.772,42.106 13.657,14.416 13.616,4.659 9.554,0.463 0,0" /></g><g
           transform="translate(734.1209,329.1049)"
           id="g24"><path
             id="path26"
             style="fill:white;fill-opacity:1;fill-rule:evenodd;stroke:none"
             d="M 0,0 C 15.559,37.985 30.967,75.602 46.78,114.205 62.953,75.373 78.535,37.961 94.345,0 Z m 101.223,-15.521 c 6.34,-16.237 12.746,-32.072 18.683,-48.082 3.182,-8.58 -0.526,-14.171 -9.685,-15.109 -4.716,-0.483 -9.523,-0.085 -14.551,-0.085 V -89.04 h 94.617 v 10.308 c -13.886,-2.55 -24.356,1.812 -30.142,14.873 -11.558,26.093 -23.025,52.227 -34.417,78.394 -11.952,27.456 -23.733,54.986 -35.664,82.451 -7.876,18.131 -15.878,36.207 -23.832,54.303 -4.657,10.594 -4.672,10.677 -16.467,9.528 -1.45,-0.142 -3.463,-1.509 -4.018,-2.816 C 32.496,126.786 19.433,95.491 6.284,64.233 -7.028,32.59 -20.319,0.937 -33.777,-30.644 -39.063,-43.05 -44.73,-55.295 -50.318,-67.57 c -2.505,-5.502 -7.143,-8.965 -12.776,-10.132 -6.36,-1.317 -12.964,-1.455 -19.648,-2.124 V -89.27 H 0.495 c 0,2.23 -0.04,3.952 0.009,5.672 0.086,3.003 0.075,4.899 -4.347,4.292 -4.984,-0.684 -10.245,-0.024 -15.303,0.662 -8.282,1.122 -11.774,7.41 -8.557,15.016 6.189,14.63 12.59,29.172 18.682,43.842 1.369,3.298 3.149,4.367 6.717,4.351 32.931,-0.147 65.863,-0.086 98.795,-0.086 z" /></g><g
           transform="translate(1209.5859,443.2449)"
           id="g28"><path
             id="path30"
             style="fill:white;fill-opacity:1;fill-rule:evenodd;stroke:none"
             d="m 0,0 c 16.051,-38.515 31.592,-75.808 47.531,-114.057 h -94.34 C -31.231,-76.1 -15.859,-38.643 0,0 m -93.762,-175.599 c -4.484,-10.514 -11.6,-17.579 -23.941,-17.504 -3.869,0.023 -7.74,-0.32 -11.465,-0.488 v -9.533 h 82.773 V -193 c -5.77,0 -11.48,-0.2 -17.171,0.047 -8.595,0.373 -15.366,5.239 -10.678,16.042 6.034,13.903 12.267,27.73 17.848,41.814 1.821,4.596 4.208,5.573 8.753,5.541 29.746,-0.205 59.497,-0.326 89.24,0.034 8.487,0.103 15.849,0.123 16.929,-10.717 0.015,-0.147 0.15,-0.279 0.208,-0.426 4.823,-12.382 9.984,-24.647 14.351,-37.188 3.142,-9.02 -0.906,-14.432 -10.309,-15.088 -4.635,-0.324 -9.284,-0.441 -14.025,-0.656 v -9.716 h 94.435 c 1.167,9.581 1.166,9.524 -7.466,9.75 -9.585,0.252 -16.799,4.038 -20.832,13.325 -9.053,20.847 -18.413,41.56 -27.565,62.365 -9.608,21.84 -19.109,43.727 -28.676,65.585 -9.233,21.095 -18.49,42.179 -27.737,63.269 -4.922,11.226 -9.783,22.48 -14.847,33.642 -0.587,1.294 -2.292,2.934 -3.488,2.941 -4.027,0.024 -8.65,0.45 -11.892,-1.354 -2.41,-1.34 -3.102,-5.87 -4.438,-9.03 -18.941,-44.799 -37.853,-89.611 -56.791,-134.411 -11.047,-26.134 -22.087,-52.27 -33.216,-78.368" /></g><g
           transform="translate(1531.8997,312.6833)"
           id="g32"><path
             id="path34"
             style="fill:white;fill-opacity:1;fill-rule:evenodd;stroke:none"
             d="m 0,0 c -2.199,18.956 -11.299,34.371 -26.709,44.422 -16.383,10.685 -34.458,18.791 -51.888,27.843 -11.64,6.046 -23.956,10.953 -35.041,17.862 -13.237,8.249 -20.599,20.158 -18.464,36.977 2.089,16.445 9.876,28.23 25.349,33.099 16.079,5.059 32.428,4.436 48.527,0.52 19.685,-4.788 29.815,-16.891 30.56,-37.154 0.147,-3.992 1.116,-7.954 1.676,-11.733 h 12.508 c 0,15.842 0.068,31.377 -0.123,46.908 -0.016,1.296 -1.498,3.109 -2.772,3.772 -18.796,9.774 -38.971,14.661 -60.001,15.634 -17.037,0.787 -33.92,0.009 -50.214,-6.441 -13.776,-5.454 -25.154,-13.608 -32.059,-26.719 -11.192,-21.25 -9.904,-50.198 9.583,-69.389 11.63,-11.453 25.474,-19.039 39.947,-25.889 16.592,-7.854 33.79,-14.534 48.762,-25.517 15.653,-11.481 26.362,-25.171 23.185,-46.266 -2.574,-17.092 -11.067,-29.815 -26.595,-37.09 -18.199,-8.527 -37.318,-8.264 -55.941,-1.949 -13.325,4.519 -23.781,13.632 -27.924,27.642 -2.371,8.016 -2.712,16.633 -4.005,25.234 h -12.688 c 0,-16.115 -0.037,-31.799 0.07,-47.483 0.009,-1.225 0.701,-2.842 1.629,-3.584 2.193,-1.753 4.645,-3.224 7.122,-4.569 12.788,-6.949 26.26,-11.877 40.752,-13.898 26.676,-3.719 52.983,-3.432 78.089,7.808 14.689,6.576 25.413,17.504 31.642,32.373 C -0.001,-25.599 1.512,-13.035 0,0" /></g><g
           transform="translate(1006.3929,234.9407)"
           id="g36"><path
             id="path38"
             style="fill:white;fill-opacity:1;fill-rule:evenodd;stroke:none"
             d="m 0,0 c 10.298,0.538 10.233,0.192 14.055,9.914 13.828,35.171 27.719,70.318 41.583,105.475 14.958,37.931 29.969,75.843 44.82,113.816 2.794,7.143 7.311,11.614 15.173,12.072 2.291,0.133 4.6,-0.076 6.897,-0.008 3.064,0.09 6.926,-0.751 8.936,0.785 1.633,1.248 1.055,5.406 1.417,8.279 0.031,0.248 -0.239,0.534 -0.476,1.023 H 49.341 v -10.262 c 6.883,0 13.633,-0.195 20.367,0.054 7.059,0.261 12.262,-7.172 9.046,-15.341 C 69.274,201.73 59.891,177.615 50.5,153.503 38.381,122.387 26.297,91.257 14.18,60.14 12.817,56.638 11.337,53.181 9.603,48.95 8.73,50.573 8.292,51.209 8.025,51.91 4.341,61.6 0.733,71.318 -2.997,80.99 c -5.817,15.083 -11.78,30.11 -17.557,45.208 -6.879,17.981 -13.632,36.011 -20.431,54.023 -6.075,16.093 -12.227,32.158 -18.156,48.304 -1.896,5.161 -0.218,9.11 4.797,11.083 3.092,1.216 6.593,1.735 9.942,1.889 8.612,0.397 8.624,0.246 8.414,8.65 -0.011,0.435 -0.254,0.865 -0.395,1.315 h -88.288 c -0.273,-9.809 -0.273,-9.808 9.1,-10.107 0.314,-0.01 0.63,-0.144 0.937,-0.121 7.878,0.594 13.494,-3.017 16.648,-9.927 3.832,-8.397 7.109,-17.049 10.553,-25.621 7.895,-19.651 15.836,-39.285 23.59,-58.992 8.887,-22.582 17.537,-45.256 26.391,-67.851 C -27.941,54.57 -18.228,30.377 -8.813,6.068 -7.122,1.705 -5.111,-0.267 0,0" /></g><g
           transform="translate(470.6827,176.2402)"
           id="g40"><path
             id="path42"
             style="fill:white;fill-opacity:1;fill-rule:evenodd;stroke:none"
             d="m 0,0 c -1.147,-0.964 -2.855,-1.443 -5.122,-1.443 h -6.016 V 9.555 h 6.016 C -2.855,9.555 -1.147,9.081 0,8.132 1.147,7.182 1.721,5.822 1.721,4.056 1.721,2.315 1.147,0.962 0,0 m 1.427,12.721 c -1.757,0.791 -3.857,1.188 -6.314,1.188 H -16.283 V -13.79 h 5.145 v 7.993 h 6.251 c 2.457,0 4.557,0.395 6.314,1.188 1.753,0.79 3.103,1.924 4.056,3.403 0.949,1.477 1.423,3.229 1.423,5.262 0,2.03 -0.474,3.785 -1.423,5.262 -0.953,1.477 -2.303,2.613 -4.056,3.403" /></g><g
           transform="translate(499.0117,184.3726)"
           id="g44"><path
             id="path46"
             style="fill:white;fill-opacity:1;fill-rule:evenodd;stroke:none"
             d="M 0,0 C 1.147,-0.951 1.721,-2.31 1.721,-4.076 1.721,-5.818 1.147,-7.177 0,-8.153 -1.147,-9.128 -2.855,-9.616 -5.122,-9.616 h -6.016 V 1.423 h 6.016 C -2.855,1.423 -1.147,0.948 0,0 m 1.427,-12.683 c 1.753,0.779 3.103,1.899 4.056,3.363 0.949,1.465 1.423,3.211 1.423,5.244 0,2.03 -0.474,3.785 -1.423,5.262 C 4.53,2.663 3.18,3.799 1.427,4.589 -0.33,5.379 -2.43,5.777 -4.887,5.777 h -11.396 v -27.699 h 5.145 v 8.071 h 6.251 c 0.371,0 0.718,0.027 1.073,0.044 l 5.657,-8.115 H 7.38 l -6.366,9.086 c 0.135,0.054 0.282,0.095 0.413,0.153" /></g><g
           transform="translate(516.7985,174.3997)"
           id="g48"><path
             id="path50"
             style="fill:white;fill-opacity:1;fill-rule:evenodd;stroke:none"
             d="M 0,0 H 13.374 V 4.234 H 0 v 7.202 H 15.077 V 15.75 H -5.145 v -27.699 h 20.777 v 4.314 L 0,-7.635 Z" /></g><g
           transform="translate(564.2061,190.1495)"
           id="g52"><path
             id="path54"
             style="fill:white;fill-opacity:1;fill-rule:evenodd;stroke:none"
             d="M 0,0 -10.811,-18.354 -21.802,0 h -4.237 v -27.699 h 4.91 v 18.111 l 9.101,-14.945 h 2.294 l 9.105,15.19 0.033,-18.356 H 4.273 L 4.232,0 Z" /></g><path
           id="path56"
           style="fill:white;fill-opacity:1;fill-rule:evenodd;stroke:none"
           d="m 575.954,162.451 h 5.145 v 27.699 h -5.145 z" /><g
           transform="translate(607.5306,174.7158)"
           id="g58"><path
             id="path60"
             style="fill:white;fill-opacity:1;fill-rule:evenodd;stroke:none"
             d="m 0,0 c 0,-2.848 -0.61,-4.919 -1.82,-6.21 -1.215,-1.295 -2.945,-1.94 -5.185,-1.94 -2.241,0 -3.975,0.645 -5.204,1.94 -1.224,1.291 -1.838,3.362 -1.838,6.21 v 15.434 h -5.145 v -15.63 c 0,-4.036 1.075,-7.123 3.225,-9.26 2.15,-2.136 5.122,-3.204 8.921,-3.204 3.771,0 6.734,1.068 8.884,3.204 2.15,2.137 3.225,5.224 3.225,9.26 v 15.63 l -5.063,0 z" /></g><g
           transform="translate(645.8325,190.1495)"
           id="g62"><path
             id="path64"
             style="fill:white;fill-opacity:1;fill-rule:evenodd;stroke:none"
             d="M 0,0 -10.811,-18.354 -21.802,0 h -4.237 v -27.699 h 4.91 v 18.111 l 9.101,-14.945 h 2.294 l 9.105,15.19 0.033,-18.356 H 4.273 L 4.232,0 Z" /></g><g
           transform="translate(664.9427,185.7953)"
           id="g66"><path
             id="path68"
             style="fill:white;fill-opacity:1;fill-rule:evenodd;stroke:none"
             d="m 0,0 h 9.178 v -23.345 h 5.145 V 0 h 9.182 V 4.354 H 0 Z" /></g><g
           transform="translate(710.7649,174.7158)"
           id="g70"><path
             id="path72"
             style="fill:white;fill-opacity:1;fill-rule:evenodd;stroke:none"
             d="m 0,0 c 0,-2.848 -0.61,-4.919 -1.82,-6.21 -1.215,-1.295 -2.945,-1.94 -5.185,-1.94 -2.241,0 -3.975,0.645 -5.204,1.94 -1.224,1.291 -1.838,3.362 -1.838,6.21 v 15.434 h -5.145 v -15.63 c 0,-4.036 1.075,-7.123 3.225,-9.26 2.15,-2.136 5.122,-3.204 8.921,-3.204 3.771,0 6.734,1.068 8.884,3.204 2.15,2.137 3.225,5.224 3.225,9.26 v 15.63 l -5.063,0 z" /></g><g
           transform="translate(739.3106,184.3726)"
           id="g74"><path
             id="path76"
             style="fill:white;fill-opacity:1;fill-rule:evenodd;stroke:none"
             d="M 0,0 C 1.147,-0.951 1.721,-2.31 1.721,-4.076 1.721,-5.818 1.147,-7.177 0,-8.153 -1.147,-9.128 -2.855,-9.616 -5.122,-9.616 h -6.016 V 1.423 h 6.016 C -2.855,1.423 -1.147,0.948 0,0 m 1.427,-12.683 c 1.753,0.779 3.103,1.899 4.056,3.363 0.949,1.465 1.423,3.211 1.423,5.244 0,2.03 -0.474,3.785 -1.423,5.262 C 4.53,2.663 3.18,3.799 1.427,4.589 -0.33,5.379 -2.43,5.777 -4.887,5.777 h -11.396 v -27.699 h 5.145 v 8.071 h 6.251 c 0.371,0 0.718,0.027 1.073,0.044 l 5.657,-8.115 H 7.38 l -6.366,9.086 c 0.135,0.054 0.282,0.095 0.413,0.153" /></g><g
           transform="translate(757.8091,172.8979)"
           id="g78"><path
             id="path80"
             style="fill:white;fill-opacity:1;fill-rule:evenodd;stroke:none"
             d="M 0,0 5.187,12.124 10.394,0 Z M 2.694,17.252 -9.772,-10.447 h 5.302 l 2.742,6.409 h 13.856 l 2.752,-6.409 h 5.38 L 7.757,17.252 Z" /></g><g
           transform="translate(797.87,184.3726)"
           id="g82"><path
             id="path84"
             style="fill:white;fill-opacity:1;fill-rule:evenodd;stroke:none"
             d="M 0,0 C 1.147,-0.951 1.721,-2.31 1.721,-4.076 1.721,-5.818 1.147,-7.177 0,-8.153 -1.147,-9.128 -2.855,-9.616 -5.122,-9.616 h -6.016 V 1.423 h 6.016 C -2.855,1.423 -1.147,0.948 0,0 m 1.427,-12.683 c 1.753,0.779 3.103,1.899 4.056,3.363 0.949,1.465 1.423,3.211 1.423,5.244 0,2.03 -0.474,3.785 -1.423,5.262 C 4.53,2.663 3.18,3.799 1.427,4.589 -0.33,5.379 -2.43,5.777 -4.887,5.777 h -11.396 v -27.699 h 5.145 v 8.071 h 6.251 c 0.371,0 0.718,0.027 1.073,0.044 l 5.657,-8.115 H 7.38 l -6.366,9.086 c 0.135,0.054 0.282,0.095 0.413,0.153" /></g><path
           id="path86"
           style="fill:white;fill-opacity:1;fill-rule:evenodd;stroke:none"
           d="m 809.365,174.4 h 10.885 v 4.115 h -10.885 z" /><g
           transform="translate(824.0083,185.836)"
           id="g88"><path
             id="path90"
             style="fill:white;fill-opacity:1;fill-rule:evenodd;stroke:none"
             d="m 0,0 h 9.851 v -14.325 c 0,-3.403 -1.436,-5.104 -4.313,-5.104 -1.08,0 -2.078,0.265 -2.986,0.793 -0.912,0.526 -1.748,1.317 -2.516,2.374 l -2.927,-3.524 c 0.949,-1.291 2.168,-2.28 3.659,-2.967 1.49,-0.684 3.121,-1.028 4.887,-1.028 3.035,0 5.348,0.804 6.947,2.415 1.594,1.608 2.394,4.047 2.394,7.319 V 4.313 L 0,4.313 Z" /></g><g
           transform="translate(868.1458,172.401)"
           id="g92"><path
             id="path94"
             style="fill:white;fill-opacity:1;fill-rule:evenodd;stroke:none"
             d="m 0,0 c -0.488,-1.172 -1.165,-2.202 -2.037,-3.085 -0.872,-0.885 -1.902,-1.563 -3.085,-2.037 -1.188,-0.476 -2.48,-0.714 -3.88,-0.714 -1.396,0 -2.692,0.238 -3.875,0.714 -1.188,0.474 -2.218,1.152 -3.09,2.037 -0.867,0.883 -1.549,1.92 -2.037,3.105 -0.487,1.188 -0.731,2.48 -0.731,3.878 0,1.425 0.244,2.724 0.731,3.898 0.488,1.174 1.175,2.202 2.06,3.087 0.881,0.883 1.911,1.563 3.085,2.037 1.174,0.474 2.461,0.712 3.857,0.712 1.4,0 2.692,-0.238 3.88,-0.712 1.183,-0.474 2.213,-1.154 3.085,-2.037 C -1.165,9.998 -0.488,8.97 0,7.796 0.488,6.622 0.732,5.323 0.732,3.898 0.732,2.475 0.488,1.174 0,0 m 1.68,14.088 c -1.341,1.278 -2.918,2.274 -4.724,2.988 -1.811,0.711 -3.794,1.068 -5.958,1.068 -2.136,0 -4.115,-0.357 -5.935,-1.068 -1.82,-0.714 -3.401,-1.71 -4.747,-2.988 -1.346,-1.281 -2.389,-2.785 -3.125,-4.51 -0.741,-1.73 -1.112,-3.623 -1.112,-5.68 0,-2.057 0.371,-3.95 1.112,-5.678 0.736,-1.727 1.779,-3.231 3.125,-4.51 1.346,-1.28 2.927,-2.276 4.747,-2.987 1.82,-0.714 3.812,-1.069 5.976,-1.069 2.136,0 4.106,0.355 5.917,1.069 1.806,0.711 3.383,1.7 4.724,2.967 1.346,1.267 2.39,2.769 3.13,4.51 0.737,1.741 1.107,3.641 1.107,5.698 0,2.057 -0.37,3.95 -1.107,5.68 -0.74,1.725 -1.784,3.229 -3.13,4.51" /></g><g
           transform="translate(896.0591,190.1495)"
           id="g96"><path
             id="path98"
             style="fill:white;fill-opacity:1;fill-rule:evenodd;stroke:none"
             d="M 0,0 -8.185,-13.475 -16.301,0 h -5.501 l 10.881,-18.005 v -9.694 h 5.144 v 9.762 L 5.063,0 Z" /></g><g
           transform="translate(941.4432,190.1495)"
           id="g100"><path
             id="path102"
             style="fill:white;fill-opacity:1;fill-rule:evenodd;stroke:none"
             d="M 0,0 -10.811,-18.354 -21.802,0 h -4.237 v -27.699 h 4.91 v 18.111 l 9.101,-14.945 h 2.294 l 9.105,15.19 0.033,-18.356 H 4.273 L 4.232,0 Z" /></g><g
           transform="translate(959.0519,172.8979)"
           id="g104"><path
             id="path106"
             style="fill:white;fill-opacity:1;fill-rule:evenodd;stroke:none"
             d="M 0,0 5.187,12.124 10.394,0 Z M 2.694,17.252 -9.772,-10.447 h 5.302 l 2.742,6.409 h 13.856 l 2.752,-6.409 h 5.38 L 7.757,17.252 Z" /></g><g
           transform="translate(982.0802,185.836)"
           id="g108"><path
             id="path110"
             style="fill:white;fill-opacity:1;fill-rule:evenodd;stroke:none"
             d="m 0,0 h 9.851 v -14.325 c 0,-3.403 -1.436,-5.104 -4.313,-5.104 -1.08,0 -2.078,0.265 -2.986,0.793 -0.912,0.526 -1.748,1.317 -2.516,2.374 l -2.927,-3.524 c 0.949,-1.291 2.168,-2.28 3.659,-2.967 1.49,-0.684 3.121,-1.028 4.887,-1.028 3.035,0 5.348,0.804 6.947,2.415 1.594,1.608 2.394,4.047 2.394,7.319 V 4.313 L 0,4.313 Z" /></g><g
           transform="translate(1030.3142,190.1495)"
           id="g112"><path
             id="path114"
             style="fill:white;fill-opacity:1;fill-rule:evenodd;stroke:none"
             d="M 0,0 -10.811,-18.354 -21.802,0 h -4.237 v -27.699 h 4.91 v 18.111 l 9.101,-14.945 h 2.295 l 9.104,15.19 0.033,-18.356 H 4.273 L 4.232,0 Z" /></g><g
           transform="translate(1061.019,174.7158)"
           id="g116"><path
             id="path118"
             style="fill:white;fill-opacity:1;fill-rule:evenodd;stroke:none"
             d="m 0,0 c 0,-2.848 -0.61,-4.919 -1.82,-6.21 -1.215,-1.295 -2.945,-1.94 -5.185,-1.94 -2.241,0 -3.975,0.645 -5.204,1.94 -1.224,1.291 -1.838,3.362 -1.838,6.21 v 15.434 h -5.145 v -15.63 c 0,-4.036 1.075,-7.123 3.225,-9.26 2.15,-2.136 5.122,-3.204 8.921,-3.204 3.771,0 6.734,1.068 8.884,3.204 2.15,2.137 3.225,5.224 3.225,9.26 v 15.63 l -5.063,0 z" /></g><g
           transform="translate(1078.5464,172.8979)"
           id="g120"><path
             id="path122"
             style="fill:white;fill-opacity:1;fill-rule:evenodd;stroke:none"
             d="M 0,0 5.187,12.124 10.394,0 Z M 2.694,17.252 -9.772,-10.447 h 5.303 l 2.741,6.409 h 13.856 l 2.752,-6.409 h 5.38 L 7.757,17.252 Z" /></g><g
           transform="translate(1118.8873,176.1409)"
           id="g124"><path
             id="path126"
             style="fill:white;fill-opacity:1;fill-rule:evenodd;stroke:none"
             d="m 0,0 c -0.967,0.556 -2.033,1.003 -3.207,1.346 -1.174,0.343 -2.353,0.653 -3.541,0.93 -1.188,0.276 -2.263,0.56 -3.225,0.85 -0.962,0.291 -1.739,0.693 -2.335,1.208 -0.592,0.515 -0.89,1.192 -0.89,2.037 0,0.711 0.203,1.346 0.614,1.899 0.407,0.553 1.053,1.003 1.938,1.346 0.885,0.341 2.037,0.515 3.464,0.515 1.211,0 2.48,-0.178 3.799,-0.535 1.319,-0.357 2.597,-0.904 3.835,-1.642 l 1.626,3.997 c -1.215,0.791 -2.638,1.396 -4.273,1.818 -1.64,0.423 -3.288,0.635 -4.95,0.635 -2.53,0 -4.621,-0.377 -6.27,-1.129 -1.648,-0.75 -2.877,-1.753 -3.681,-3.006 -0.804,-1.254 -1.206,-2.631 -1.206,-4.135 0,-1.477 0.303,-2.69 0.913,-3.641 0.605,-0.948 1.386,-1.707 2.353,-2.274 0.962,-0.569 2.028,-1.03 3.202,-1.387 1.174,-0.354 2.349,-0.666 3.523,-0.928 1.175,-0.264 2.241,-0.549 3.207,-0.851 0.962,-0.305 1.744,-0.712 2.353,-1.226 0.606,-0.515 0.908,-1.195 0.908,-2.04 0,-0.684 -0.208,-1.298 -0.632,-1.838 -0.42,-0.542 -1.08,-0.971 -1.978,-1.287 -0.895,-0.316 -2.069,-0.475 -3.524,-0.475 -1.711,0 -3.387,0.29 -5.022,0.872 -1.635,0.578 -3.008,1.306 -4.115,2.175 l -1.779,-3.995 c 1.16,-0.978 2.728,-1.775 4.706,-2.394 1.978,-0.621 4.051,-0.93 6.21,-0.93 2.534,0 4.63,0.374 6.292,1.127 1.662,0.752 2.895,1.754 3.704,3.008 0.804,1.251 1.206,2.617 1.206,4.094 0,1.45 -0.298,2.651 -0.89,3.602 C 1.739,-1.305 0.962,-0.553 0,0" /></g><path
           id="path128"
           style="fill:white;fill-opacity:1;fill-rule:evenodd;stroke:none"
           d="m 1127.212,162.451 h 5.145 v 27.699 h -5.145 z" /><g
           transform="translate(1145.8522,158.494)"
           id="g130"><path
             id="path132"
             style="fill:white;fill-opacity:1;fill-rule:evenodd;stroke:none"
             d="M 0,0 H 4.431 L 17.489,37.274 H 13.058 Z" /></g><g
           transform="translate(1192.4603,169.4945)"
           id="g134"><path
             id="path136"
             style="fill:white;fill-opacity:1;fill-rule:evenodd;stroke:none"
             d="m 0,0 c -0.556,-1.003 -1.301,-1.768 -2.236,-2.294 -0.935,-0.529 -1.996,-0.793 -3.184,-0.793 -1.188,0 -2.258,0.264 -3.207,0.793 -0.949,0.526 -1.698,1.291 -2.254,2.294 -0.555,1 -0.831,2.175 -0.831,3.521 0,1.371 0.276,2.552 0.831,3.541 0.556,0.989 1.305,1.748 2.254,2.276 0.949,0.527 2.019,0.791 3.207,0.791 1.188,0 2.249,-0.264 3.184,-0.791 C -1.301,8.81 -0.556,8.051 0,7.062 0.556,6.073 0.831,4.892 0.831,3.521 0.831,2.175 0.556,1 0,0 m 0.655,12.979 c -1.599,0.896 -3.437,1.344 -5.524,1.344 -1.712,0 -3.275,-0.389 -4.688,-1.168 -0.786,-0.433 -1.472,-1.005 -2.078,-1.689 v 10.849 h -4.946 V -7.044 h 4.711 v 2.828 c 0.632,-0.783 1.361,-1.435 2.213,-1.918 1.4,-0.79 2.995,-1.188 4.788,-1.188 2.087,0 3.925,0.457 5.524,1.367 1.594,0.91 2.859,2.168 3.798,3.778 0.935,1.608 1.405,3.507 1.405,5.698 0,2.188 -0.47,4.087 -1.405,5.698 -0.939,1.608 -2.204,2.861 -3.798,3.76" /></g><g
           transform="translate(1210.782,167.9482)"
           id="g138"><path
             id="path140"
             style="fill:white;fill-opacity:1;fill-rule:evenodd;stroke:none"
             d="m 0,0 -6.646,15.632 h -5.145 l 9.238,-21.2 -0.371,-0.84 c -0.479,-1.054 -0.989,-1.806 -1.545,-2.256 -0.555,-0.447 -1.278,-0.673 -2.177,-0.673 -0.659,0 -1.305,0.134 -1.938,0.398 -0.632,0.264 -1.201,0.619 -1.702,1.068 l -1.979,-3.641 c 0.687,-0.607 1.545,-1.081 2.575,-1.425 1.025,-0.343 2.055,-0.514 3.085,-0.514 1.188,0 2.276,0.185 3.265,0.555 0.989,0.368 1.884,1.014 2.688,1.938 0.804,0.923 1.535,2.177 2.195,3.76 l 9.896,22.83 H 6.687 Z" /></g><g
           transform="translate(1269.4297,180.3107)"
           id="g142"><path
             id="path144"
             style="fill:white;fill-opacity:1;fill-rule:evenodd;stroke:none"
             d="m 0,0 -7.091,9.839 h -5.696 -0.122 -23.383 V 5.485 h 9.178 V -17.86 h 5.145 V 5.485 h 9.182 V 9.669 L -3.188,-3.722 -13.46,-17.86 h 5.854 l 7.429,10.543 7.53,-10.543 h 5.935 L 2.885,-3.534 12.575,9.839 H 6.997 Z" /></g><g
           transform="translate(1282.0044,185.7953)"
           id="g146"><path
             id="path148"
             style="fill:white;fill-opacity:1;fill-rule:evenodd;stroke:none"
             d="m 0,0 h 9.178 v -23.345 h 5.145 V 0 h 9.182 V 4.354 H 0 Z" /></g><g
           transform="translate(1326.3181,183.3021)"
           id="g150"><path
             id="path152"
             style="fill:white;fill-opacity:1;fill-rule:evenodd;stroke:none"
             d="M 0,0 C 0.899,0.872 1.965,1.545 3.207,2.019 4.444,2.493 5.79,2.73 7.24,2.73 c 1.504,0 2.882,-0.255 4.138,-0.77 1.251,-0.515 2.416,-1.312 3.5,-2.394 L 18.121,2.73 C 16.829,4.207 15.239,5.33 13.356,6.095 11.468,6.859 9.35,7.243 7.005,7.243 4.842,7.243 2.85,6.893 1.03,6.195 c -1.821,-0.7 -3.41,-1.69 -4.77,-2.97 -1.359,-1.278 -2.407,-2.789 -3.144,-4.53 -0.74,-1.742 -1.111,-3.641 -1.111,-5.698 0,-2.058 0.371,-3.957 1.111,-5.698 0.737,-1.741 1.78,-3.25 3.126,-4.53 1.346,-1.281 2.922,-2.27 4.729,-2.968 1.807,-0.698 3.789,-1.048 5.953,-1.048 1.951,0 3.884,0.296 5.8,0.89 1.91,0.594 3.59,1.47 5.04,2.631 V -6.687 H 12.9 v -8.602 c -0.562,-0.325 -1.135,-0.595 -1.721,-0.795 -1.278,-0.434 -2.606,-0.653 -3.979,-0.653 -1.477,0 -2.823,0.237 -4.034,0.714 -1.215,0.474 -2.267,1.152 -3.166,2.037 -0.899,0.883 -1.59,1.92 -2.078,3.105 -0.488,1.188 -0.731,2.48 -0.731,3.878 0,1.425 0.243,2.73 0.731,3.918 C -1.59,-1.899 -0.899,-0.869 0,0" /></g><g
           transform="translate(1367.1311,184.3726)"
           id="g154"><path
             id="path156"
             style="fill:white;fill-opacity:1;fill-rule:evenodd;stroke:none"
             d="M 0,0 C 1.147,-0.951 1.721,-2.31 1.721,-4.076 1.721,-5.818 1.147,-7.177 0,-8.153 -1.147,-9.128 -2.854,-9.616 -5.122,-9.616 h -6.016 V 1.423 h 6.016 C -2.854,1.423 -1.147,0.948 0,0 m 1.427,-12.683 c 1.753,0.779 3.103,1.899 4.056,3.363 0.949,1.465 1.423,3.211 1.423,5.244 0,2.03 -0.474,3.785 -1.423,5.262 C 4.53,2.663 3.18,3.799 1.427,4.589 -0.33,5.379 -2.43,5.777 -4.887,5.777 h -11.396 v -27.699 h 5.145 v 8.071 h 6.251 c 0.371,0 0.718,0.027 1.073,0.044 l 5.657,-8.115 H 7.38 l -6.366,9.086 c 0.135,0.054 0.282,0.095 0.413,0.153" /></g><g
           transform="translate(1401.7158,172.401)"
           id="g158"><path
             id="path160"
             style="fill:white;fill-opacity:1;fill-rule:evenodd;stroke:none"
             d="m 0,0 c -0.488,-1.172 -1.165,-2.202 -2.037,-3.085 -0.872,-0.885 -1.902,-1.563 -3.085,-2.037 -1.188,-0.476 -2.48,-0.714 -3.88,-0.714 -1.395,0 -2.692,0.238 -3.875,0.714 -1.188,0.474 -2.218,1.152 -3.09,2.037 -0.867,0.883 -1.549,1.92 -2.037,3.105 -0.487,1.188 -0.731,2.48 -0.731,3.878 0,1.425 0.244,2.724 0.731,3.898 0.488,1.174 1.175,2.202 2.06,3.087 0.881,0.883 1.911,1.563 3.085,2.037 1.174,0.474 2.462,0.712 3.857,0.712 1.4,0 2.692,-0.238 3.88,-0.712 1.183,-0.474 2.213,-1.154 3.085,-2.037 C -1.165,9.998 -0.488,8.97 0,7.796 0.488,6.622 0.732,5.323 0.732,3.898 0.732,2.475 0.488,1.174 0,0 m 1.68,14.088 c -1.341,1.278 -2.918,2.274 -4.724,2.988 -1.811,0.711 -3.794,1.068 -5.958,1.068 -2.136,0 -4.115,-0.357 -5.935,-1.068 -1.82,-0.714 -3.401,-1.71 -4.747,-2.988 -1.346,-1.281 -2.389,-2.785 -3.126,-4.51 -0.74,-1.73 -1.111,-3.623 -1.111,-5.68 0,-2.057 0.371,-3.95 1.111,-5.678 0.737,-1.727 1.78,-3.231 3.126,-4.51 1.346,-1.28 2.927,-2.276 4.747,-2.987 1.82,-0.714 3.812,-1.069 5.976,-1.069 2.136,0 4.106,0.355 5.917,1.069 1.806,0.711 3.383,1.7 4.724,2.967 1.346,1.267 2.39,2.769 3.13,4.51 0.737,1.741 1.107,3.641 1.107,5.698 0,2.057 -0.37,3.95 -1.107,5.68 -0.74,1.725 -1.784,3.229 -3.13,4.51" /></g><g
           transform="translate(1432.0457,174.7158)"
           id="g162"><path
             id="path164"
             style="fill:white;fill-opacity:1;fill-rule:evenodd;stroke:none"
             d="m 0,0 c 0,-2.848 -0.61,-4.919 -1.82,-6.21 -1.215,-1.295 -2.945,-1.94 -5.185,-1.94 -2.241,0 -3.975,0.645 -5.204,1.94 -1.224,1.291 -1.838,3.362 -1.838,6.21 v 15.434 h -5.145 v -15.63 c 0,-4.036 1.075,-7.123 3.225,-9.26 2.15,-2.136 5.122,-3.204 8.921,-3.204 3.771,0 6.734,1.068 8.884,3.204 2.15,2.137 3.225,5.224 3.225,9.26 v 15.63 l -5.063,0 z" /></g><g
           transform="translate(1460.5913,176.2402)"
           id="g166"><path
             id="path168"
             style="fill:white;fill-opacity:1;fill-rule:evenodd;stroke:none"
             d="m 0,0 c -1.147,-0.964 -2.854,-1.443 -5.122,-1.443 h -6.016 V 9.555 h 6.016 C -2.854,9.555 -1.147,9.081 0,8.132 1.147,7.182 1.721,5.822 1.721,4.056 1.721,2.315 1.147,0.962 0,0 m 1.427,12.721 c -1.757,0.791 -3.857,1.188 -6.314,1.188 H -16.283 V -13.79 h 5.145 v 7.993 h 6.251 c 2.457,0 4.557,0.395 6.314,1.188 1.753,0.79 3.103,1.924 4.056,3.403 0.949,1.477 1.423,3.229 1.423,5.262 0,2.03 -0.474,3.785 -1.423,5.262 -0.953,1.477 -2.303,2.613 -4.056,3.403" /></g><g
           transform="translate(772.2632,705.9897)"
           id="g170"><path
             id="path172"
             style="fill:white;fill-opacity:1;fill-rule:evenodd;stroke:none"
             d="M 0,0 C 23.218,11.257 67.543,21.811 96.389,23.922 96.389,8.443 97.092,-9.85 95.685,-24.625 94.278,-39.4 91.464,-40.807 66.136,-42.214 l -0.704,-9.85 h 96.389 v 9.146 c -19.7,4.222 -28.846,-2.11 -30.254,20.404 -0.703,9.146 -1.407,43.621 0.704,50.657 38.696,2.814 76.689,1.407 115.385,0 1.407,-7.739 0.704,-41.511 0,-49.954 -1.407,-20.403 -4.221,-16.885 -30.253,-21.107 v -9.146 h 96.389 v 9.85 c -7.036,0 -15.479,0.704 -21.811,2.814 -7.739,2.111 -7.739,7.036 -8.443,16.182 -1.407,15.479 -0.703,33.068 -0.703,47.843 54.878,-0.703 182.224,-35.882 107.646,-85.132 C 303.238,-117.496 85.836,-114.682 -4.221,-61.21 -40.807,-39.4 -40.103,-19.7 0,0 m 416.513,-60.507 c 37.992,34.475 0.703,68.95 -26.736,84.429 -22.514,12.664 -50.657,23.217 -76.689,29.549 -8.443,2.111 -22.514,4.222 -28.846,7.036 -2.111,1.407 -0.704,47.843 -0.704,49.953 1.407,19.7 4.925,17.59 29.55,20.404 l 0.704,9.85 -96.389,0.704 c -0.704,-14.775 0.703,-9.85 14.071,-11.961 9.85,-1.407 14.072,-2.111 15.479,-11.961 2.814,-15.479 0,-35.882 1.407,-52.064 -63.321,4.221 -56.286,2.814 -117.496,0 1.407,40.807 -7.036,60.507 16.182,64.025 14.071,2.111 15.478,-2.814 14.775,11.257 l -95.685,0.704 -0.704,-10.554 c 19.7,-1.407 28.846,0.704 30.253,-18.997 1.407,-16.182 0,-33.771 0.704,-49.953 C 77.393,56.989 57.693,53.471 38.696,47.843 21.107,42.214 4.221,35.882 -11.257,27.439 -35.882,13.368 -78.8,-21.107 -44.325,-57.693 c 69.654,-75.282 385.556,-71.06 460.838,-2.814" /></g><g
           transform="translate(950.9698,868.5142)"
           id="g174"><path
             id="path176"
             style="fill:white;fill-opacity:1;fill-rule:evenodd;stroke:none"
             d="m 0,0 c 2.814,-11.961 6.332,-23.921 11.961,-32.364 7.739,6.332 10.553,22.514 13.368,33.068 9.146,3.517 16.182,6.332 21.81,11.96 -6.332,6.332 -21.107,10.554 -21.81,11.961 -4.925,10.554 -4.222,19.7 -12.665,32.364 C 7.036,47.139 2.814,37.289 0,24.625 -1.407,23.218 -12.664,18.996 -22.514,12.664 -15.479,4.925 -7.036,4.925 0,0" /></g></g></g></g></svg>